<?xml version="1.0" standalone="no"?>
<!DOCTYPE svg PUBLIC "-//W3C//DTD SVG 20010904//EN"
 "http://www.w3.org/TR/2001/REC-SVG-20010904/DTD/svg10.dtd">
<svg version="1.0" xmlns="http://www.w3.org/2000/svg"
 width="1187.000000pt" height="311.000000pt" viewBox="0 0 1187.000000 311.000000"
 preserveAspectRatio="xMidYMid meet">

<g transform="translate(0.000000,311.000000) scale(0.100000,-0.100000)"
fill="#000000" stroke="none">
<path d="M3545 2838 c-103 -246 -290 -678 -310 -718 -21 -40 -35 -56 -66 -69
-21 -9 -39 -19 -39 -23 0 -5 59 -8 130 -8 80 0 130 4 130 10 0 6 -11 10 -24
10 -14 0 -37 11 -52 24 l-28 23 23 61 c12 34 31 82 42 107 l20 45 160 0 160 0
24 -54 c66 -148 66 -189 0 -202 -78 -14 -26 -24 130 -24 103 0 165 4 165 10 0
6 -7 10 -15 10 -9 0 -29 7 -46 15 -38 20 -63 72 -235 483 -76 182 -142 332
-147 332 -4 0 -14 -15 -22 -32z m60 -328 c36 -85 65 -158 65 -162 0 -5 -63 -8
-141 -8 -109 0 -140 3 -136 13 3 6 31 71 62 142 31 72 61 141 66 154 5 13 11
22 14 20 2 -3 33 -74 70 -159z"/>
<path d="M5167 2863 c-3 -5 -70 -162 -150 -350 -187 -439 -188 -441 -238 -462
-21 -9 -39 -19 -39 -23 0 -5 59 -8 130 -8 80 0 130 4 130 10 0 6 -11 10 -24
10 -14 0 -37 10 -52 23 -26 22 -26 25 -14 63 7 21 26 69 43 107 l30 67 159 0
159 0 24 -54 c66 -148 66 -189 0 -202 -78 -14 -26 -24 130 -24 103 0 165 4
165 10 0 6 -8 10 -17 10 -38 0 -79 37 -109 101 -17 35 -93 214 -170 397 -76
182 -142 332 -146 332 -4 0 -9 -3 -11 -7z m48 -353 c36 -85 65 -158 65 -162 0
-5 -63 -8 -141 -8 -109 0 -140 3 -136 13 3 6 31 71 62 142 31 72 61 141 66
154 5 13 11 22 14 20 2 -3 33 -74 70 -159z"/>
<path d="M11380 2861 c-102 -31 -170 -116 -170 -211 0 -94 51 -152 226 -255
131 -77 178 -114 200 -156 33 -64 4 -143 -66 -181 -51 -28 -152 -20 -214 16
-56 33 -80 66 -103 144 -10 34 -21 62 -25 62 -5 0 -8 -63 -8 -140 0 -87 4
-140 10 -140 6 0 10 6 10 14 0 7 7 19 16 26 12 11 31 9 108 -13 105 -31 152
-33 222 -12 172 51 225 256 97 377 -15 15 -80 57 -143 93 -166 96 -217 137
-231 184 -10 33 -9 44 7 77 41 82 130 106 227 61 68 -31 111 -86 128 -163 7
-30 16 -54 21 -54 4 0 8 63 8 140 0 77 -4 140 -8 140 -5 0 -14 -12 -21 -26
-13 -30 -29 -29 -121 5 -56 21 -125 25 -170 12z"/>
<path d="M527 2813 c-13 -21 -36 -65 -52 -98 -15 -33 -57 -118 -92 -189 l-63
-129 0 -574 0 -573 -35 0 c-22 0 -43 -8 -55 -20 -19 -19 -20 -33 -20 -493 0
-411 2 -475 16 -495 l15 -22 1280 0 c863 0 1287 3 1300 10 18 10 19 26 19 500
0 542 3 520 -66 520 l-34 0 -1 573 0 572 -112 225 -112 225 -982 3 -983 2 -23
-37z m1999 -218 c43 -85 75 -157 72 -160 -2 -3 -486 -4 -1075 -3 l-1070 3 76
157 76 157 922 1 923 0 76 -155z m-1286 -320 l0 -55 -410 0 -410 0 0 55 0 55
410 0 410 0 0 -55z m475 -25 l0 -75 -185 0 -185 0 -3 64 c-2 35 -1 70 2 78 5
11 40 13 188 11 l183 -3 0 -75z m925 25 l0 -55 -410 0 -410 0 0 55 0 55 410 0
410 0 0 -55z m-1860 -435 l0 -280 -180 0 -180 0 0 280 0 280 180 0 180 0 0
-280z m460 0 l0 -280 -180 0 -180 0 0 280 0 280 180 0 180 0 0 -280z m940 0
l0 -280 -180 0 -180 0 0 280 0 280 180 0 180 0 0 -280z m460 0 l0 -280 -180 0
-180 0 0 280 0 280 180 0 180 0 0 -280z m-920 180 l0 -50 -190 0 -190 0 0 43
c0 24 3 47 7 50 3 4 89 7 190 7 l183 0 0 -50z m-2 -207 l-3 -48 -185 0 -185 0
-3 48 -3 47 191 0 191 0 -3 -47z m0 -205 l3 -48 -190 0 -191 0 0 43 c0 24 3
47 7 51 4 3 88 5 187 4 l181 -3 3 -47z m-1198 -258 l0 -100 -50 0 -50 0 0 100
0 100 50 0 50 0 0 -100z m210 0 l0 -100 -55 0 -55 0 0 100 0 100 55 0 55 0 0
-100z m200 0 l0 -100 -50 0 -50 0 0 100 0 100 50 0 50 0 0 -100z m210 0 l0
-100 -50 0 -50 0 0 100 0 100 50 0 50 0 0 -100z m200 0 l0 -100 -50 0 -50 0 0
100 0 100 50 0 50 0 0 -100z m270 0 l0 -100 -80 0 -80 0 0 100 0 100 80 0 80
0 0 -100z m210 0 l0 -100 -50 0 -50 0 0 100 0 100 50 0 50 0 0 -100z m200 0
l0 -100 -50 0 -50 0 0 100 0 100 50 0 50 0 0 -100z m210 0 l0 -100 -55 0 -55
0 0 100 0 100 55 0 55 0 0 -100z m200 0 l0 -100 -50 0 -50 0 0 100 0 100 50 0
50 0 0 -100z m210 0 l0 -100 -55 0 -55 0 0 100 0 100 55 0 55 0 0 -100z m100
-615 l0 -415 -50 0 -50 0 0 288 c0 244 -2 291 -16 310 -15 21 -21 22 -187 22
-95 0 -179 -5 -187 -10 -13 -8 -16 -57 -20 -307 l-5 -298 -202 -3 -203 -2 0
105 c0 105 0 105 24 105 28 0 56 24 56 47 0 25 -30 53 -57 53 l-23 0 0 255 0
255 458 3 c251 1 458 3 460 5 1 1 2 -185 2 -413z m-1500 150 l0 -255 -31 0
c-45 0 -69 -16 -69 -48 0 -38 17 -52 62 -52 l38 0 0 -105 0 -105 -205 0 -205
0 0 292 c0 257 -2 294 -17 310 -14 16 -34 18 -186 18 -145 0 -173 -3 -189 -17
-17 -15 -18 -38 -18 -310 l0 -293 -50 0 -50 0 0 410 0 410 460 0 460 0 0 -255z
m478 208 l-3 -48 -185 0 -185 0 -3 48 -3 47 191 0 191 0 -3 -47z m0 -205 l3
-48 -190 0 -191 0 0 43 c0 24 3 47 7 51 4 3 88 5 187 4 l181 -3 3 -47z m-988
-308 l0 -261 -102 3 -103 3 -3 245 c-1 134 0 250 3 257 3 9 33 13 105 13 l100
0 0 -260z m1800 0 l0 -260 -100 0 -100 0 0 260 0 260 100 0 100 0 0 -260z
m-812 103 l-3 -48 -185 0 -185 0 -3 48 -3 47 191 0 191 0 -3 -47z m-3 -258 l0
-100 -185 0 -185 0 -3 89 c-2 49 0 96 2 103 5 11 42 13 188 11 l183 -3 0 -100z"/>
<path d="M2014 605 c-15 -23 -15 -27 0 -50 29 -44 86 -28 86 25 0 53 -57 69
-86 25z"/>
<path d="M944 605 c-15 -23 -15 -27 0 -50 10 -15 26 -25 41 -25 15 0 31 10 41
25 15 23 15 27 0 50 -10 15 -26 25 -41 25 -15 0 -31 -10 -41 -25z"/>
<path d="M4110 2841 c0 -6 15 -11 34 -11 19 0 44 -9 57 -19 l24 -19 0 -357 0
-357 -24 -19 c-13 -10 -38 -19 -57 -19 -19 0 -34 -4 -34 -10 0 -6 65 -10 175
-10 110 0 175 4 175 10 0 6 -13 10 -29 10 -15 0 -40 9 -55 21 l-26 20 0 163 0
163 58 -9 c195 -32 332 62 332 227 -1 83 -54 156 -145 197 -46 20 -68 22 -267
26 -156 3 -218 1 -218 -7z m404 -54 c58 -32 81 -84 81 -178 0 -67 -3 -80 -28
-112 -36 -47 -75 -67 -129 -67 -93 0 -88 -11 -88 190 0 133 3 180 13 183 33
14 114 6 151 -16z"/>
<path d="M5710 2841 c0 -6 15 -11 34 -11 19 0 44 -9 57 -19 l24 -19 0 -357 0
-357 -24 -19 c-13 -10 -38 -19 -57 -19 -19 0 -34 -4 -34 -10 0 -6 67 -10 180
-10 113 0 180 4 180 10 0 6 -16 10 -35 10 -25 0 -44 8 -60 25 -24 24 -25 28
-25 185 l0 160 43 0 42 -1 140 -194 140 -195 107 0 c60 0 108 4 108 8 0 5 -24
16 -54 25 -38 12 -65 30 -92 60 -43 46 -230 306 -227 315 1 2 28 15 60 28 71
28 118 79 131 140 21 97 -22 178 -117 222 -54 25 -64 26 -288 30 -167 3 -233
1 -233 -7z m420 -53 c33 -17 51 -35 68 -68 68 -136 -30 -270 -201 -270 l-47 0
2 172 3 172 25 7 c50 14 106 9 150 -13z"/>
<path d="M6556 2798 c-8 -72 -8 -128 2 -128 4 0 15 23 25 51 26 73 58 90 167
87 l85 -3 0 -358 0 -359 -28 -24 c-16 -14 -41 -24 -58 -24 -16 0 -29 -4 -29
-10 0 -6 65 -10 175 -10 110 0 175 4 175 10 0 6 -15 10 -34 10 -19 0 -44 9
-57 19 l-24 19 -3 366 -3 366 83 0 c111 0 146 -18 173 -88 11 -29 23 -52 28
-52 9 0 9 71 1 134 l-7 46 -332 0 -332 0 -7 -52z"/>
<path d="M7360 2840 c0 -5 13 -10 29 -10 17 0 42 -10 58 -24 l28 -24 0 -352 0
-352 -24 -19 c-13 -10 -38 -19 -57 -19 -19 0 -34 -4 -34 -10 0 -6 55 -10 145
-10 90 0 145 4 145 10 0 6 -15 10 -34 10 -19 0 -44 9 -57 19 l-24 19 -2 319
c-3 314 -2 318 16 283 10 -19 82 -176 161 -348 79 -172 147 -311 153 -309 5 1
74 144 153 317 79 173 150 329 158 345 14 27 15 -1 13 -288 l-2 -319 -24 -19
c-13 -10 -38 -19 -57 -19 -19 0 -34 -4 -34 -10 0 -6 67 -10 180 -10 113 0 180
4 180 10 0 6 -16 10 -35 10 -25 0 -44 8 -60 25 l-25 24 0 346 0 346 25 24 c16
17 35 25 60 25 19 0 35 5 35 10 0 6 -46 10 -119 10 l-118 0 -111 -242 c-61
-134 -127 -279 -147 -322 -19 -44 -39 -75 -44 -70 -4 5 -72 150 -151 322
l-144 312 -118 0 c-72 0 -118 -4 -118 -10z"/>
<path d="M8540 2840 c0 -5 16 -10 35 -10 56 0 72 -24 80 -122 9 -102 2 -607
-9 -629 -9 -20 -49 -39 -81 -39 -14 0 -25 -5 -25 -10 0 -7 107 -9 316 -8 l317
3 35 98 c19 54 31 101 27 105 -4 4 -12 -1 -19 -12 -89 -147 -95 -150 -272
-154 -121 -3 -143 -1 -157 13 -15 14 -17 41 -17 187 l0 170 129 -4 c147 -3
167 -12 177 -80 13 -79 24 -33 24 102 0 135 -11 181 -24 102 -10 -68 -30 -77
-177 -80 l-129 -4 0 172 0 171 161 -3 161 -3 24 -28 c13 -15 28 -45 34 -67 23
-85 39 -20 24 94 l-7 46 -313 0 c-203 0 -314 -4 -314 -10z"/>
<path d="M9330 2835 c0 -8 9 -15 20 -15 31 0 95 -36 119 -66 20 -26 21 -37 21
-329 0 -195 -4 -313 -11 -334 -13 -36 -35 -51 -78 -51 -17 0 -31 -4 -31 -10 0
-6 55 -10 145 -10 90 0 145 4 145 10 0 6 -15 10 -34 10 -19 0 -44 9 -57 19
l-24 19 -3 294 c-2 252 -1 291 11 278 13 -13 287 -344 466 -562 35 -43 70 -78
77 -78 12 0 14 67 14 389 l0 390 26 20 c15 12 41 21 60 21 19 0 34 5 34 10 0
6 -55 10 -145 10 -90 0 -145 -4 -145 -10 0 -5 11 -10 25 -10 32 0 72 -19 81
-39 11 -24 18 -561 7 -561 -5 0 -122 140 -261 310 l-253 310 -105 0 c-86 0
-104 -3 -104 -15z"/>
<path d="M10356 2798 c-8 -72 -8 -128 2 -128 4 0 15 23 25 51 26 72 58 89 170
89 l89 0 -4 -361 -3 -361 -28 -24 c-16 -14 -41 -24 -58 -24 -16 0 -29 -4 -29
-10 0 -6 65 -10 175 -10 110 0 175 4 175 10 0 6 -15 10 -34 10 -19 0 -44 9
-57 19 l-24 19 -3 366 -3 366 83 0 c111 0 146 -18 173 -88 11 -29 23 -52 28
-52 9 0 9 71 1 134 l-7 46 -332 0 -332 0 -7 -52z"/>
<path d="M3210 985 l0 -765 115 0 115 0 0 665 0 665 145 0 145 0 0 -240 0
-240 -110 0 -110 0 0 -77 c0 -74 7 -97 123 -423 l122 -345 118 -3 119 -3 -8
23 c-4 13 -60 169 -124 348 -96 265 -115 325 -101 327 9 1 43 5 75 8 47 5 65
13 88 35 l28 28 0 344 c0 301 -2 346 -16 367 -34 48 -60 51 -404 51 l-320 0 0
-765z"/>
<path d="M4830 985 l0 -765 315 0 315 0 0 100 0 100 -200 0 -200 0 0 240 0
240 170 0 170 0 0 100 0 100 -170 0 -170 0 0 225 0 225 200 0 200 0 0 100 0
100 -315 0 -315 0 0 -765z"/>
<path d="M6320 985 l0 -765 110 0 110 0 2 462 3 463 175 -460 175 -460 98 -3
97 -3 0 766 0 765 -111 0 -110 0 3 -455 c2 -250 2 -452 0 -448 -1 5 -81 208
-176 453 l-173 445 -102 3 -101 3 0 -766z"/>
<path d="M8176 1508 c-83 -429 -166 -857 -207 -1065 -21 -111 -39 -206 -39
-212 0 -7 38 -11 110 -11 l109 0 6 32 c3 18 14 83 23 143 l17 110 146 3 145 3
18 -123 c27 -189 10 -168 137 -168 86 0 109 3 109 14 0 7 -34 189 -75 402 -41
214 -105 551 -143 749 l-68 360 -121 3 -120 3 -47 -243z m274 -785 c0 -10 -29
-13 -110 -13 -66 0 -110 4 -110 10 0 19 101 635 107 650 4 12 112 -603 113
-647z"/>
<path d="M9520 1650 l0 -100 125 0 125 0 0 -665 0 -665 110 0 110 0 0 665 0
665 124 0 c72 0 126 4 128 10 2 5 2 50 0 100 l-3 90 -360 0 -359 0 0 -100z"/>
<path d="M11256 1508 c-26 -134 -92 -474 -146 -756 -55 -282 -100 -517 -100
-522 0 -6 46 -10 110 -10 l109 0 6 32 c3 18 14 83 23 143 l17 110 146 3 145 3
18 -123 c27 -189 10 -168 137 -168 86 0 109 3 109 14 0 7 -34 189 -75 402 -41
214 -105 551 -143 749 l-69 360 -120 3 -120 3 -47 -243z m217 -430 c26 -161
50 -310 54 -330 l6 -38 -112 0 c-61 0 -111 3 -111 8 -1 25 105 652 110 652 3
0 27 -132 53 -292z"/>
</g>
</svg>
