<?xml version="1.0" standalone="no"?>
<svg xmlns:xlink="http://www.w3.org/1999/xlink" id="wave" style="transform:rotate(0deg); transition: 0.3s" viewBox="0 0 1440 490" version="1.1" xmlns="http://www.w3.org/2000/svg"><defs><linearGradient id="sw-gradient-0" x1="0" x2="0" y1="1" y2="0"><stop stop-color="rgba(243, 106, 62, 1)" offset="0%"/><stop stop-color="rgba(255, 179, 11, 1)" offset="100%"/></linearGradient></defs><path style="transform:translate(0, 0px); opacity:1" fill="#222222" d="M0,245L120,236.8C240,229,480,212,720,228.7C960,245,1200,294,1440,261.3C1680,229,1920,114,2160,81.7C2400,49,2640,98,2880,138.8C3120,180,3360,212,3600,187.8C3840,163,4080,82,4320,81.7C4560,82,4800,163,5040,204.2C5280,245,5520,245,5760,220.5C6000,196,6240,147,6480,147C6720,147,6960,196,7200,196C7440,196,7680,147,7920,122.5C8160,98,8400,98,8640,130.7C8880,163,9120,229,9360,220.5C9600,212,9840,131,10080,98C10320,65,10560,82,10800,130.7C11040,180,11280,261,11520,261.3C11760,261,12000,180,12240,163.3C12480,147,12720,196,12960,228.7C13200,261,13440,278,13680,261.3C13920,245,14160,196,14400,196C14640,196,14880,245,15120,269.5C15360,294,15600,294,15840,253.2C16080,212,16320,131,16560,122.5C16800,114,17040,180,17160,212.3L17280,245L17280,490L17160,490C17040,490,16800,490,16560,490C16320,490,16080,490,15840,490C15600,490,15360,490,15120,490C14880,490,14640,490,14400,490C14160,490,13920,490,13680,490C13440,490,13200,490,12960,490C12720,490,12480,490,12240,490C12000,490,11760,490,11520,490C11280,490,11040,490,10800,490C10560,490,10320,490,10080,490C9840,490,9600,490,9360,490C9120,490,8880,490,8640,490C8400,490,8160,490,7920,490C7680,490,7440,490,7200,490C6960,490,6720,490,6480,490C6240,490,6000,490,5760,490C5520,490,5280,490,5040,490C4800,490,4560,490,4320,490C4080,490,3840,490,3600,490C3360,490,3120,490,2880,490C2640,490,2400,490,2160,490C1920,490,1680,490,1440,490C1200,490,960,490,720,490C480,490,240,490,120,490L0,490Z"/></svg>